HIERARCHY
ROOT Hips
{
	OFFSET 0.00000 0.00000 0.00000
	CHANNELS 6 Xposition Yposition Zposition Yrotation Zrotation Xrotation 
	JOINT Lumbar
	{
		OFFSET 0 0 0
		CHANNELS 3 Zrotation Xrotation Yrotation
		JOINT Neck
		{
			OFFSET 0.00 0.2701 0.00
			CHANNELS 3 Zrotation Xrotation Yrotation
			End Site
			{
				OFFSET 0.00 0.1379 0.00
			}
		}
		JOINT RightShoulder
		{
			OFFSET 0.0119 0.2289 0.1181
			CHANNELS 3 Zrotation Xrotation Yrotation
			JOINT RightElbow
			{
				OFFSET 0.00 -0.1475 0.00
				CHANNELS 2 Zrotation Yrotation
				JOINT RightWrist
				{
					OFFSET 0.00 -0.1605 0.00
					CHANNELS 2 Zrotation Xrotation
					End Site
					{
						OFFSET 0.0040 -0.1068 0.0006
					}
				}
			}
		}
		JOINT LeftShoulder
		{
			OFFSET 0.0119 0.2289 -0.1181
			CHANNELS 3 Zrotation Xrotation Yrotation
			JOINT LeftElbow
			{
				OFFSET 0.00 -0.1475 0.00
				CHANNELS 2 Zrotation Yrotation
				JOINT LeftWrist
				{
					OFFSET 0.00 -0.1605 0.00
					CHANNELS 2 Zrotation Xrotation
					End Site
					{
						OFFSET 0.0040 -0.1068 -0.0006
					}
				}
			}
		}
	}
	JOINT RightHip
	{
		OFFSET 0.0316 -0.0424 0.0458
		CHANNELS 3 Zrotation Xrotation Yrotation
		JOINT RightKnee
		{
			OFFSET 0.00 -0.2438 0.00
			CHANNELS 1 Zrotation
			JOINT RightAnkle
			{
				OFFSET 0.00 -0.2449 0.00
				CHANNELS 3 Zrotation Xrotation Yrotation
				End Site
				{
					OFFSET 0.1237 -0.0542 0.0051
				}
			}
		}
	}
	JOINT LeftHip
	{
		OFFSET 0.0316 -0.0424 -0.0458
		CHANNELS 3 Zrotation Xrotation Yrotation
		JOINT LeftKnee
		{
			OFFSET 0.00 -0.2438 0.00
			CHANNELS 1 Zrotation
			JOINT LeftAnkle
			{
				OFFSET 0.00 -0.2449 0.00
				CHANNELS 3 Zrotation Xrotation Yrotation
				End Site
				{
					OFFSET 0.1237 -0.0542 -0.0051
				}
			}
		}
	}
}
MOTION
Frames: 33
Frame Time: 0.02
-0.11169 0.24205 0.22423 190.80225 0 -6.74056 -56.06392 13.41225 53.73723 -73.79693 43.14358 24.47699 133.45694 -25.05786 24.62038 64.59259 98.42127 -73.91061 -5.3842 147.06252 -11.39263 -64.10141 54.76366 -26.41362 -79.64127 -15.8953 28.08324 5.11048 0.78256 -134.44202 20.35809 19.78239 14.01478 34.19718 -0.64104 -14.85337 -144.25278 20.54153 -5.85066 -2.33562
-0.11285 0.2426 0.22481 190.5716 0 -6.72852 -56.06392 13.47512 53.96535 -73.79691 43.14351 24.51422 134.16094 -25.25873 26.03577 63.3385 97.57273 -74.70491 -5.94841 146.63426 -11.32117 -63.64872 55.76663 -25.14882 -79.19947 -13.9674 27.84447 5.10633 0.50332 -134.32193 20.42402 20.11935 13.95399 33.90498 -0.56704 -14.52975 -144.06821 20.57162 -5.70025 -2.26395
-0.11362 0.24289 0.22527 190.23351 0 -6.71752 -56.06392 13.42292 54.17679 -73.79688 43.14341 24.51333 135.13361 -25.32789 27.84042 61.80492 96.34982 -75.72368 -6.66116 146.24842 -11.22423 -63.01775 56.62222 -23.49734 -78.59849 -11.48791 27.74011 5.15011 0.23782 -134.32514 20.49595 20.48361 13.88469 33.70715 -0.42513 -14.15403 -143.97169 20.60562 -5.70693 -2.25294
-0.11453 0.24326 0.22578 189.94601 0 -6.69935 -56.06392 13.41817 54.38667 -73.79685 43.14332 24.49605 135.95284 -25.4299 29.41528 60.4316 95.35101 -76.6118 -7.28679 145.80798 -11.1317 -62.43961 57.54285 -22.20335 -78.02207 -9.3023 27.58342 5.16397 -0.0503 -134.28784 20.56551 20.8381 13.81539 33.47708 -0.32021 -13.7965 -143.8426 20.63775 -5.50653 -2.17646
-0.11561 0.24378 0.22634 189.6505 0 -6.7075 -56.06391 13.4375 54.63707 -73.79683 43.14321 24.60879 136.90615 -25.6486 31.22148 58.91806 94.13682 -77.62807 -8.00281 145.49094 -11.0663 -61.9426 58.4934 -20.20019 -77.62985 -6.91503 27.388 5.20875 -0.27169 -134.18556 20.63469 21.1908 13.76325 33.20114 -0.19229 -13.46038 -143.68137 20.67099 -5.86115 -2.25734
-0.11622 0.24393 0.22677 189.34705 0 -6.66278 -56.06391 13.37938 54.79953 -73.79681 43.14314 24.45171 137.64467 -25.59748 32.63715 57.63285 93.27486 -78.42879 -8.56374 144.94877 -10.94194 -61.25746 59.33314 -19.52888 -76.83742 -4.82897 27.30502 5.20211 -0.62814 -134.24643 20.70552 21.54661 13.6712 33.04295 -0.09484 -13.06752 -143.60795 20.70245 -5.11663 -2.02741
-0.11563 0.24311 0.22688 189.03951 0 -6.4598 -56.06391 13.11761 54.70831 -73.79683 43.14321 23.49206 137.70707 -24.76366 32.85421 57.01314 93.51014 -78.56856 -8.64987 143.62296 -10.63088 -59.98688 59.96806 -23.02408 -74.79626 -3.64901 27.51051 5.03823 -1.35741 -134.74363 20.78094 21.93552 13.4899 33.1946 -0.10082 -12.53639 -143.75996 20.72976 -1.14099 -0.90599
-0.11458 0.24193 0.22688 188.72919 0 -6.20587 -56.06392 12.78426 54.53115 -73.79686 43.14332 22.27486 137.54659 -23.6737 32.66788 56.63841 94.10518 -78.48443 -8.57542 142.09629 -10.26659 -58.55558 60.48343 -27.80294 -72.3901 -2.80327 27.82324 4.82208 -2.22303 -135.39818 20.85735 22.31157 13.26284 33.46064 -0.13894 -11.94946 -143.99693 20.75482 3.91587 0.52618
-0.11375 0.24094 0.22694 188.42574 0 -5.98329 -56.06392 12.49498 54.40305 -73.79688 43.14341 21.22117 137.49924 -22.7467 32.68129 56.17326 94.51267 -78.50883 -8.58009 140.76631 -9.94706 -57.27623 61.00692 -31.7238 -70.27336 -1.84775 28.07967 4.63258 -3.02851 -135.96995 20.93222 22.68306 13.04781 33.66895 -0.1602 -11.38437 -144.19177 20.77964 8.37456 1.80465
-0.11287 0.23984 0.22693 188.09511 0 -5.72632 -56.06392 12.15392 54.2335 -73.79691 43.14352 19.9727 137.41209 -21.62245 32.63966 55.61111 95.00934 -78.5129 -8.56449 139.00423 -9.54166 -55.66513 61.71531 -36.76325 -67.63746 -0.69995 28.37116 4.43237 -3.82712 -136.5924 21.01211 23.13431 12.87996 33.90326 -0.18863 -10.83124 -144.4032 20.80971 13.28071 3.13608
-0.11198 0.23887 0.22705 187.82154 0 -5.52865 -56.06392 11.90411 54.12844 -73.79693 43.14359 19.06572 137.35042 -20.84521 32.61116 55.31157 95.40989 -78.50283 -8.55061 138.07934 -9.30046 -54.69906 62.01877 -39.81751 -65.98825 -0.03301 28.61523 4.24156 -4.67099 -137.14656 21.08148 23.3724 12.5899 34.11128 -0.2107 -10.24194 -144.60077 20.82855 17.51116 4.42878
-0.1112 0.23839 0.22755 187.70916 0 -5.50889 -56.06392 11.93312 54.23642 -73.79691 43.14353 19.19603 137.42135 -21.12898 32.72056 55.68768 95.4642 -78.50988 -8.58306 139.64429 -9.54654 -55.64525 61.17222 -36.77671 -67.24105 -0.6737 28.68591 4.08824 -5.62006 -137.4606 21.12333 23.41107 12.09076 34.20184 -0.20687 -9.55588 -144.72438 20.81498 19.63584 5.56591
-0.11041 0.23804 0.22818 187.65427 0 -5.55018 -56.06392 12.05507 54.40964 -73.79688 43.14342 19.67329 137.52344 -21.76346 32.85462 56.31799 95.41005 -78.50898 -8.62151 142.03637 -9.95616 -57.23105 59.93229 -31.7515 -69.4841 -1.78116 28.70766 3.94618 -6.60728 -137.70247 21.15421 23.17305 11.45147 34.26471 -0.19596 -8.8378 -144.83331 20.79107 21.04144 6.64939
-0.1096 0.2376 0.22874 187.57173 0 -5.56245 -56.06392 12.12915 54.54405 -73.79686 43.14334 19.97134 137.604 -22.2124 32.97341 56.82782 95.40247 -78.5097 -8.65509 143.96267 -10.27706 -58.4635 58.91583 -27.83285 -71.21642 -2.63348 28.76162 3.79957 -7.5685 -137.98514 21.18891 22.79611 10.79563 34.3508 -0.18891 -8.14133 -144.95843 20.77241 22.75828 7.73864
-0.10891 0.23729 0.22934 187.49561 0 -5.57855 -56.06391 12.22519 54.71453 -73.79683 43.14324 20.35117 137.70542 -22.76489 33.09536 57.37129 95.41797 -78.51132 -8.6926 146.25369 -10.65597 -59.95049 57.71495 -23.09432 -73.19089 -3.66617 28.77677 3.64879 -8.57199 -138.23896 21.22854 23.4965 10.46428 34.39588 -0.18019 -7.41226 -145.04692 20.74903 24.56993 8.91366
-0.10796 0.23674 0.22988 187.41964 0 -5.60153 -56.06391 12.2976 54.82601 -73.79681 43.14316 20.64655 137.77698 -23.18565 33.22204 57.89646 95.35591 -78.5119 -8.72495 147.99385 -10.95472 -61.06676 56.79566 -19.57565 -74.90254 -4.44544 28.86037 3.51002 -9.49351 -138.53449 21.25533 21.93712 9.44026 34.51852 -0.17291 -6.74524 -145.20645 20.73595 26.00987 9.89777
-0.10633 0.23557 0.23025 187.33231 0 -5.63084 -56.06391 12.29108 54.76371 -73.79681 43.14316 20.62325 137.72897 -23.18263 33.354 58.35837 95.09786 -78.51363 -8.74643 147.92575 -10.98239 -60.95614 56.84544 -19.90207 -75.63413 -4.27055 29.13885 3.40034 -10.18953 -138.95493 21.24932 13.77313 6.39997 34.85937 -0.17157 -6.24933 -145.57039 20.72815 26.49902 10.32635
-0.10444 0.23416 0.23055 187.24315 0 -5.66445 -56.06391 12.2568 54.63962 -73.79681 43.14317 20.50386 137.65517 -23.03238 33.49162 58.78503 94.7659 -78.51532 -8.76257 147.29031 -10.92569 -60.45926 57.17706 -21.51771 -76.0708 -3.84567 29.48841 3.30171 -10.79958 -139.4205 21.23114 3.42218 2.69244 35.27904 -0.1723 -5.81887 -146.00474 20.73521 26.64928 10.56993
-0.10267 0.23285 0.23087 187.15285 0 -5.69528 -56.06391 12.229 54.54048 -73.79681 43.14317 20.43084 137.61521 -22.9327 33.63052 59.19113 94.47067 -78.51679 -8.77859 146.97277 -10.91442 -60.17152 57.31524 -22.54523 -76.65274 -3.62982 29.80901 3.20065 -11.44105 -139.86977 21.21804 -5.63999 -0.61774 35.66392 -0.17101 -5.36394 -146.40374 20.75319 27.01876 10.92506
-0.10089 0.23158 0.23122 187.07122 0 -5.73308 -56.06391 12.22808 54.45534 -73.79682 43.14318 20.36054 137.48801 -22.91011 33.75612 59.75088 94.15603 -78.51882 -8.80484 146.43545 -10.87942 -59.76681 57.70717 -23.52254 -77.22303 -3.04152 30.11424 3.09378 -12.11442 -140.29884 21.2049 -15.94408 -4.32624 36.04394 -0.17165 -4.88524 -146.81765 20.69898 27.10058 11.16635
-0.09906 0.23017 0.23149 186.97244 0 -5.75484 -56.06391 12.16614 54.32734 -73.79682 43.14318 20.2545 137.52952 -22.69242 33.90754 59.99122 93.86888 -78.51983 -8.80924 146.20405 -10.87101 -59.5023 57.65312 -24.92522 -77.7328 -3.14603 30.46851 2.99552 -12.7027 -140.78164 21.19103 -24.19319 -7.3667 36.45268 -0.17189 -4.47244 -147.21587 20.79528 27.6952 11.59668
-0.09712 0.22838 0.23152 186.80798 0 -5.74648 -56.06391 11.9176 54.08037 -73.79682 43.14319 20.09681 138.10044 -21.92844 34.15627 59.24866 93.64647 -78.51811 -8.74779 147.00783 -10.962 -59.74661 56.2103 -27.27954 -78.15954 -5.36324 30.94465 2.97157 -13.05585 -141.4008 21.16023 -26.08649 -8.35251 36.92513 -0.14345 -4.22259 -147.56655 21.33401 29.92099 12.63488
-0.09514 0.22645 0.23146 186.62922 0 -5.719 -56.06391 11.61227 53.79501 -73.79682 43.1432 19.90121 138.83224 -20.97996 34.42671 58.20358 93.45925 -78.51538 -8.66564 148.12561 -11.08087 -60.13757 54.32721 -30.0027 -78.52835 -8.25196 31.46695 2.94735 -13.32932 -142.07241 21.13163 -25.85763 -8.64909 37.42293 -0.11893 -4.03781 -147.89668 22.01819 32.65387 13.8621
-0.09319 0.22458 0.23145 186.46936 0 -5.68955 -56.06391 11.34943 53.53724 -73.79682 43.1432 19.70468 139.45144 -20.14233 34.66775 57.36938 93.27689 -78.51321 -8.59767 149.06122 -11.18265 -60.43971 52.70584 -32.51554 -78.91093 -10.74784 31.96616 2.88652 -13.65392 -142.72173 21.11488 -26.7005 -9.29352 37.90721 -0.1113 -3.82499 -148.22769 22.61571 35.07077 14.97677
-0.09117 0.22271 0.23142 186.25835 0 -5.70392 -56.06391 11.01733 53.23461 -73.79682 43.1432 19.57811 140.23226 -19.18429 34.98689 56.23016 93.00796 -78.51079 -8.51008 150.1429 -11.30019 -60.8203 50.8346 -35.28245 -79.33697 -13.6305 32.47778 2.97533 -13.91564 -143.36844 21.047 -27.18522 -9.82293 38.40387 -0.02779 -3.60675 -148.59666 23.30003 37.83443 16.19862
-0.08929 0.22082 0.2314 186.14899 0 -5.62412 -56.06391 10.81375 53.017 -73.79683 43.14322 19.30251 140.72023 -18.43698 35.15419 55.64739 92.92351 -78.50841 -8.45759 151.00385 -11.39268 -61.07992 49.37463 -37.5535 -79.66233 -15.83877 32.97229 2.75953 -14.28663 -144.02946 21.08184 -27.86042 -10.40976 38.87826 -0.09961 -3.41591 -148.881 23.83857 40.00333 17.24305
-0.08782 0.21885 0.23145 186.33684 0 -5.27425 -56.06391 11.00166 53.04426 -73.79685 43.14329 18.58567 140.31417 -18.29941 34.84499 56.73889 93.38691 -78.50741 -8.51422 151.1649 -11.40875 -60.94682 49.1659 -38.70833 -79.72451 -16.3118 33.41881 1.6398 -15.01252 -144.74261 21.43905 -29.76929 -11.40455 39.29691 -0.6305 -3.27189 -148.93431 23.93287 40.38588 17.76447
-0.08651 0.21687 0.23151 186.6251 0 -4.83295 -56.06392 11.31696 53.15838 -73.79687 43.14338 17.72751 139.61579 -18.38303 34.39025 58.38877 94.02783 -78.5055 -8.60507 151.0978 -11.39914 -60.69241 49.38315 -39.29792 -79.68859 -16.04515 33.84406 0.22503 -15.84524 -145.46329 21.89287 -31.89902 -12.46319 39.68953 -1.3118 -3.15526 -148.90321 23.87644 40.15771 18.09909
-0.08514 0.21495 0.23155 186.85879 0 -4.44319 -56.06392 11.55894 53.23284 -73.79689 43.14346 16.96058 139.08246 -18.37897 34.03824 59.7418 94.55514 -78.50433 -8.6762 151.14745 -11.40196 -60.51123 49.39922 -39.8934 -79.69856 -15.9078 34.27194 -1.01333 -16.6074 -146.16369 22.27603 -33.79022 -13.43527 40.08596 -1.90372 -3.03433 -148.91195 23.89296 40.22419 18.51175
-0.08369 0.21281 0.23167 187.12953 0 -4.01077 -56.06392 11.86325 53.30755 -73.79692 43.14355 16.07982 138.42182 -18.3191 33.53927 61.26754 95.21662 -78.50496 -8.76623 151.15452 -11.40248 -60.26121 49.43331 -41.49278 -79.70092 -16.60386 34.73173 -2.42977 -17.4597 -146.93743 22.76981 -36.18324 -14.62357 40.51766 -2.5843 -2.8815 -148.91388 23.89596 40.23658 18.96058
-0.08245 0.21112 0.23162 187.34739 0 -3.64553 -56.06392 12.06975 53.40181 -73.79693 43.14361 15.40111 137.95102 -18.42423 33.3031 62.56839 95.64794 -78.49759 -8.82276 151.18958 -11.40134 -60.12053 49.53528 -40.94905 -79.69647 -15.45891 35.1187 -3.54614 -18.15059 -147.55911 23.0591 -37.62196 -15.38947 40.86881 -3.11621 -2.80053 -148.91006 23.88921 40.20921 19.28635
-0.08171 0.21061 0.23108 187.39207 0 -3.49034 -56.06392 11.96583 53.53807 -73.79692 43.14356 15.33309 138.10932 -18.98561 33.90276 63.12602 95.33154 -78.50575 -8.80211 151.37847 -11.40205 -60.33979 49.73439 -33.85991 -79.69916 -8.71373 35.3152 -3.753 -18.36975 -147.76155 22.73417 -36.28205 -14.94182 41.00835 -3.19706 -2.91305 -148.91239 23.89344 40.2263 19.32485
-0.08118 0.21055 0.23037 187.3803 0 -3.40587 -56.06392 11.76063 53.68928 -73.79689 43.14346 15.47058 138.46255 -19.69642 34.75951 63.43586 94.78757 -78.50077 -8.74357 151.59804 -11.40182 -60.66705 49.98641 -24.76419 -79.69833 -0.25804 35.43779 -3.64815 -18.42253 -147.80964 22.20488 -34.00107 -14.07621 41.06671 -3.12326 -3.09633 -148.91169 23.89212 40.22097 19.2436
